# xmcd
#
# Track frame offsets:
#	150
#	16162
#	28987
#	57975
#	69850
#	93537
#	113037
#	125862
#	135150
#	148087
#
# Disc length: 2133 seconds
#
# Revision: 3
# Processed by: cddbd v1.5PL3 Copyright (c) Steve Scherf et al.
# Submitted via: MusicWizard 7.0.2
#
DISCID=8a08530a
DTITLE=John Lee Hooker - Blues Legend
DYEAR=1995
DGENRE=Blues
TTITLE0=Doin' The Shout
TTITLE1=The Motor City Is Burning
TTITLE2=House Rent Boogie
TTITLE3=Cry Before I Go
TTITLE4=I Got A Good 'Un
TTITLE5=I Don't Need No Steam Heat
TTITLE6=Back Biters And Syndicators
TTITLE7=Hey Boogie
TTITLE8=Mr. Lucky
TTITLE9=Boom Boom
EXTD=
EXTT0=
EXTT1=
EXTT2=
EXTT3=
EXTT4=
EXTT5=
EXTT6=
EXTT7=
EXTT8=
EXTT9=
PLAYORDER=
